<svg width="5000" height="1236" viewBox="0 0 5000 1236" fill="none" xmlns="http://www.w3.org/2000/svg">
<path d="M842.47 179.109C791.469 179.109 751.522 141.909 751.522 89.5739C751.522 37.2005 791.469 0 842.47 0C893.472 0 933.418 37.2005 933.418 89.5354C933.418 141.909 893.434 179.109 842.47 179.109ZM766.661 983.657V278.272H915.506V983.618L766.661 983.657Z" fill="#242121"/>
<path d="M1316.06 991.898C1102.46 991.898 966.022 852.762 966.022 632.331C966.022 414.674 1106.59 269.992 1320.18 269.992C1502.08 269.992 1615.1 370.542 1644.03 530.357H1488.33C1469.03 447.715 1409.78 396.728 1317.45 396.728C1197.57 396.728 1119.03 493.157 1119.03 632.293C1119.03 770.043 1197.57 865.123 1317.45 865.123C1408.4 865.123 1469.03 812.789 1486.94 731.494H1644.03C1616.49 891.349 1496.57 991.898 1316.06 991.898Z" fill="#242121"/>
<path d="M1695.77 983.657V19.2934H1844.58V619.932L2164.27 278.272H2339.27L2073.32 563.438L2355.83 983.619H2179.44L1971.35 672.266L1844.58 804.509V983.619L1695.77 983.657Z" fill="#242121"/>
<path d="M4173.55 981.693C3958.57 981.693 3813.88 837.05 3813.88 620.74C3813.88 405.817 3958.57 259.787 4173.55 259.787C4388.54 259.787 4533.22 405.817 4533.22 620.74C4533.22 837.05 4388.54 981.693 4173.55 981.693ZM4173.55 854.957C4298.94 854.957 4381.64 757.142 4381.64 620.74C4381.64 484.338 4298.94 386.562 4173.55 386.562C4048.17 386.562 3966.85 484.377 3966.85 620.74C3966.85 757.104 4048.17 854.957 4173.55 854.957Z" fill="#242121"/>
<path d="M4669.26 792.352V409.371H4546.61V278.476H4669.26V81.4986H4819.49V278.515H4991.72V409.371H4819.49V777.217C4819.49 832.325 4838.75 853.005 4895.26 853.005H5000V983.9H4862.21C4727.16 983.823 4669.26 920.474 4669.26 792.352Z" fill="#242121"/>
<path d="M2998.28 277.849V408.821H2587.15C2550.86 408.821 2526.17 431.58 2526.17 468.627C2526.17 501.322 2546.39 522.618 2574.05 528.433L2869.97 593.784C2971.4 616.543 3033.84 690.636 3033.84 784.33C3033.84 898.127 2948.21 982.117 2829.25 982.117H2400.48V851.145H2826.29C2861.07 851.145 2888.73 826.922 2888.73 785.794C2888.73 753.099 2869.97 730.34 2839.39 723.331L2542 659.404C2443.27 638.109 2381.1 562.552 2381.1 470.09C2381.1 359.22 2466.73 278.119 2584.22 278.119H2998.32L2998.28 277.849Z" fill="#242121"/>
<path d="M714.044 629.712C712.314 820.715 554.295 973.231 363.958 973.231H151.294C151.178 973.231 151.102 973.309 151.102 973.424V1236H0V821.601H365.149C471.712 821.601 561.059 736.994 562.98 630.059C564.902 520.848 476.977 431.421 368.608 431.421H256.243C233.147 431.421 210.974 440.637 194.641 457.027L181.806 469.907C165.474 486.296 156.29 508.547 156.29 531.723V580.39C156.29 594.697 144.722 606.265 130.504 606.265H28.3988C14.1418 606.265 0 593.701 0 579.432V478.083C0 463.776 14.1802 452.052 28.3988 452.052H103.796C126.892 452.052 149.065 442.835 165.397 426.446C181.729 410.057 190.914 387.806 190.914 364.629V304.548C190.914 290.897 201.943 279.791 215.585 279.791H368.646C560.098 279.791 715.773 437.051 714.044 629.712Z" fill="#242121"/>
<path d="M3781.85 629.712C3780.12 820.715 3622.1 973.231 3431.76 973.231H3219.1C3218.98 973.231 3218.9 973.309 3218.9 973.424V1236H3067.8V821.601H3432.95C3539.51 821.601 3628.86 736.994 3630.78 630.059C3632.7 520.848 3544.78 431.421 3436.41 431.421H3324.05C3300.95 431.421 3278.78 440.637 3262.44 457.027L3249.61 469.907C3233.28 486.296 3224.09 508.547 3224.09 531.723V580.39C3224.09 594.697 3212.53 606.265 3198.31 606.265H3096.2C3081.94 606.265 3067.8 593.701 3067.8 579.432V478.083C3067.8 463.776 3081.98 452.052 3096.2 452.052H3171.6C3194.69 452.052 3216.87 442.835 3233.2 426.446C3249.53 410.057 3258.72 387.806 3258.72 364.629V304.548C3258.72 290.897 3269.75 279.791 3283.39 279.791H3436.45C3627.9 279.791 3783.58 437.051 3781.85 629.712Z" fill="#242121"/>
</svg>
